<svg xmlns="http://www.w3.org/2000/svg" width="400" height="200"><rect id="backgroundrect" width="100%" height="100%" x="0" y="0" fill="none" stroke="none" class="" style=""/>
 <metadata id="metadata5986">image/svg+xml</metadata>
 <g style="" class="currentLayer">
  <title>Layer 1</title>
  <g transform="rotate(-179.89540100097656 206.0835266113281,101.98133850097658) " id="layer1" class="selected" fill="#000000" fill-opacity="1">
   <path d="m254.62800876845552,81.06193935131836 c-0.06799300000000086,-0.002701000000000025 -0.20599400000000137,0.0354 -0.274994,0.033501000000000315 c-4.858002,-0.13479600000000044 -13.667999,1.278099 -22.39801,3.6175990000000002 c-9.173981,2.459 -18.005981,6.487 -27.971985,9.581001 c-4.5010069999999995,-2.064003 -9.078003,-4.032997 -13.658997,-5.627998 c-7.979004,-2.778 -15.690002,-4.589302 -21.744995,-4.589302 c-1.5050050000000001,0 -2.973999,0.09210200000000107 -4.404022,0.267998 c-1.429993,0.1763 -2.83699,0.4373020000000025 -4.162994,0.7703019999999995 c-2.651001,0.667000000000005 -5.070999,1.6259990000000006 -7.121994,2.814003 c-3.6589970000000003,2.118996 -6.093002,5 -6.606003,8.240997 c-2.087006,0.0670010000000006 -4.078003,0.17500300000000021 -5.746002,0.36800400000000194 c-3.955002,0.459 -6.815994,1.231995 -8.875992,2.243996 c-1.031006,0.507004 -1.868011,1.070999 -2.546005,1.6750030000000002 c-2.712997,2.418999 -2.615005,5.461998 -2.615005,7.335999 c0,1.261002 0.644012,2.6689990000000003 1.823013,4.221001 c1.179993,1.553001 2.936996,3.206993 5.332993,4.724007 c1.1979980000000001,0.7579960000000039 2.539001,1.4829860000000001 4.059998,2.14299 c3.042007,1.320999 6.744003,2.386002 11.14801,2.947998 c2.200989,0.2810060000000003 4.597,0.4360050000000003 7.155991,0.4360050000000003 c2.408997,0 5.084,-0.2489930000000016 7.878998,-0.6029970000000039 c9.162994,-1.1620030000000001 19.932007,-3.949997 29.761017,-6.934006 c1.6529850000000001,-0.5019990000000006 2.8549800000000003,-0.936996 4.437988,-1.440994 c1.348999,0.5970000000000006 2.723999,1.147003 4.059998,1.742004 c6.380005,2.8409880000000003 12.585999000000001,5.607986 18.373016,7.972992 l0.687988000000005,-1.5749970000000002 c-5.746002,-2.347 -11.955994,-5.130005 -18.338013,-7.9719999999999995 c-0.7590030000000006,-0.3379970000000003 -1.541992,-0.666000000000005 -2.304993,-1.005005 c9.496002,-3.093994 17.687988,-6.000999 20.196014,-6.8669970000000005 c0.259003,-0.09000400000000092 1.326996,-0.455002 1.6510010000000008,-0.5700000000000006 c5.233002,2.298996 10.725983,4.532997 16.204987,6.398003 c4.511993,1.536003 8.852997,2.831001 12.696014,3.786003 c3.842987,0.954987 7.184998,1.569 9.667999,1.6749880000000008 c4.947998,0.2090000000000002 11.133972,-1.248001 16.10199,-3.886002 c1.242004,-0.6599960000000044 2.389984,-1.399994 3.44101,-2.210991 c1.049988,-0.8110050000000006 1.9759829999999994,-1.6850050000000016 2.751984,-2.647003 c1.5520019999999999,-1.9219970000000002 2.476013,-4.187996 2.304993,-6.631996 c-0.3269960000000022,-4.677002 -2.8949890000000007,-7.866005 -6.570984,-9.748001 c-2.399017,-1.228004 -5.34201,-1.829002 -8.429993,-2.210999 c-0.7010190000000006,-2.984001 -2.296021,-5.086105 -4.644012,-6.3312 c-1.657013,-0.878403 -3.681,-1.3586040000000001 -5.917999,-1.6749040000000006 c-1.7550050000000001,-0.33110000000000195 -3.480988,-0.4503020000000003 -5.058014,-0.435501 c-0.10800200000000022,0.0009990000000000179 -0.23797600000000024,-0.03569800000000011 -0.3439940000000025,-0.033501000000000315 l0,0 zm0,1.708405 c0.013000000000000105,0.0004960000000000082 0.022003000000000175,-0.0005040000000000017 0.03399700000000001,0 c1.9360050000000002,0.08259600000000107 3.615997,0.271698 5.196014,0.502495 c1.431,0.28280600000000194 2.863983,0.6613010000000044 4.127991,1.273201 c2.153015,1.041 3.8439940000000004,2.549004 4.6799930000000005,4.822998 c-1.042999,-0.08199300000000077 -2.020996,-0.278999 -3.096985,-0.300995 c-16.251007,1.616997 -31.684998,6.536995 -47.445007,12.026001 c-1.4469910000000001,-0.7000050000000039 -3.143005,-1.382004 -4.438995,-2.077003 c-1.07901,-0.577995000000005 -2.31601,-1.103996 -3.4400020000000002,-1.6749950000000087 c0.2690120000000003,-0.11000100000000022 0.8659970000000043,-0.3020020000000003 1.100006,-0.402 c4.005005,-1.700005 12.485992,-5.209 21.160004,-8.307007 c8.656006,-3.091995 17.588989,-5.758598 22.122986,-5.862694 zm-86.048981,3.014694 c1.42099,0 2.946991,0.09100300000000092 4.575989,0.3020020000000003 c1.6289980000000006,0.2099990000000016 3.337006,0.5429990000000043 5.127014,0.9380040000000006 c7.278992,1.604996 15.668976,4.624001 23.635986,8.172997 c-4.790009,2.169998 -9.05899,4.207001 -15.138,6.633003 c-2.153015,0.8590010000000043 -4.04599,1.442001 -6.1239930000000005,2.210999 c-2.296997,-0.8909990000000072 -4.589996,-1.794998 -6.847015,-2.580002 c-6.356995,-2.209 -12.514999,-3.932999 -18.234985,-4.790001 c-2.610001,-0.3909990000000003 -5.097,-0.541 -7.5010069999999995,-0.5359950000000039 c0.37100200000000194,-1.751999 1.403,-3.473999 3.199997,-4.991005 c0.7370000000000039,-0.6229930000000043 1.6020050000000001,-1.195 2.546005,-1.741997 c1.8880000000000003,-1.093002 4.136002,-2.015999 6.639999,-2.646004 c2.503998,-0.6309970000000048 5.259995,-0.972 8.12001,-0.972 zm94.787994,7.4030000000000005 c0.3240050000000003,-0.014000000000000073 0.6409910000000069,-0.005997000000000052 0.928986,0 c1.6589970000000007,0.03400400000000001 3.251007,0.126007 4.851013,0.20100400000000004 c-0.028992000000000136,0.403 0.002991000000000035,0.805 -0.06900000000000062,1.206001 c-0.3309940000000022,1.847 -1.106018,3.651001 -2.201996,5.292999 c-0.5469970000000006,0.820999000000005 -1.199005,1.588997 -1.891998,2.310997 c-1.386017,1.445 -3.005005,2.661003 -4.748016,3.518005 c-0.872009000000005,0.4279940000000003 -1.7779850000000001,0.7649990000000072 -2.682983,1.004997 c-0.906006,0.23899800000000154 -1.81601,0.37799800000000194 -2.7190250000000002,0.402 c-1.8769840000000002,0.04799700000000001 -3.496979,-0.1720050000000002 -4.850983,-0.536003 c-1.302002,-0.3509980000000003 -2.36499,-0.8460010000000039 -3.200012,-1.406998 c1.5870060000000001,-0.2850040000000003 2.8220210000000003,-1.6230010000000008 2.8220210000000003,-3.25 c0,-1.8330000000000002 -1.558014,-3.316002 -3.44101,-3.316002 c-0.1730040000000002,0 -0.3160100000000022,0.009003000000000082 -0.481995,0.033005000000000013 c-0.3099980000000018,-0.026001000000000253 -0.6490170000000006,-0.011002000000000112 -0.997009,0.03399700000000001 c-0.980988,0.282997 -1.90799,1.266998 -2.029999,2.814003 c-0.06900000000000062,0.863998000000005 0.17401100000000044,1.7509990000000006 0.687988000000005,2.6129990000000003 c0.514008,0.8610000000000039 1.309021,1.6969990000000101 2.33902,2.411995 c1.031006,0.7140050000000039 2.317993,1.329002 3.854004,1.7410050000000008 c1.53598,0.4130020000000003 3.296997,0.622002 5.332977,0.5700000000000006 c1.053009,-0.027000000000000253 2.10202,-0.1670000000000013 3.131012,-0.4360050000000003 c1.028992,-0.267998 2.054993,-0.6609950000000078 3.027985,-1.138 c0.971008,-0.477997 1.903015,-1.056999 2.7860110000000002,-1.709 c0.8829960000000039,-0.651993000000005 1.7160030000000002,-1.3829960000000001 2.4779970000000002,-2.176994 c0.761017,-0.7939990000000043 1.455994,-1.6370010000000006 2.0639950000000002,-2.546005 c0.608002,-0.909996 1.132019,-1.8859940000000006 1.5480040000000002,-2.8809970000000007 c0.4169920000000003,-0.995003 0.7090150000000006,-2.030998 0.895020000000005,-3.082001 c0.08200100000000059,-0.463997 0.036987,-0.9359970000000006 0.06900000000000062,-1.406998 c2.527985,0.17499500000000137 4.924988,0.463997 6.880981,1.071999 c1.792999,0.5579990000000044 3.233002,1.362999 4.265991,2.478996 c1.03302,1.116005 1.6800230000000007,2.572006 1.824005,4.623001 c0.06802400000000094,0.9830019999999995 -0.08499100000000077,1.907005 -0.412994,2.814003 c-0.3290100000000025,0.9059980000000006 -0.8389890000000026,1.776001 -1.514008,2.6129990000000003 c-0.6759950000000088,0.835999000000005 -1.517975,1.6370010000000006 -2.47699,2.377998 c-0.959991000000005,0.7410050000000044 -2.035004,1.425003 -3.200012,2.042999 c-2.329987,1.238007 -4.994995,2.2190090000000002 -7.638,2.848007 c-2.6439820000000003,0.6279910000000068 -5.271973,0.8990020000000006 -7.534973,0.8040010000000006 c-2.254028,-0.09600800000000075 -5.472015,-0.671005000000006 -9.255005,-1.608002 c-3.7839970000000003,-0.9380040000000006 -8.121002,-2.230003 -12.593018,-3.752007 c-4.842987,-1.647995000000002 -9.781982,-3.552994 -14.484985,-5.560997 c4.091003,-1.461998 9.424988,-3.427002 16.617981,-5.727997 c8.351013,-2.671005 17.154022,-5.081001 22.02002,-5.293007 zm-115.431,4.657005 c7.35199,-0.04000100000000011 16.031006,2.062996 25.253998,5.258995 c1.6369930000000008,0.5670010000000006 3.3249820000000003,1.248001 4.988007,1.8759990000000006 c-1.559021,0.552002 -3.331024,1.260002 -4.748016,1.7080000000000002 c-1.6269840000000002,0.515007 -3.048004,0.9070050000000006 -4.403992,1.239006 c-1.641998,0.282997 -3.830994,0.8040010000000006 -4.782013,0.8040010000000006 c-3.9129940000000003,0 -8.109985,-1.357002 -11.250992,-3.483002 c-2.957993,-2.002998 -4.83699,-4.658005 -5.056992,-7.4030000000000005 zm-1.789001,0.03299700000000001 c0.10899400000000069,1.641998 0.6340030000000006,3.207001 1.582001,4.623001 c1.054001,1.5719990000000008 2.541992,2.9859999999999998 4.266998,4.153999 c1.723999,1.167 3.724991,2.125 5.813995,2.779999 c2.0890050000000002,0.6549990000000078 4.272003,1.005005 6.43399,1.005005 c2.243011,0 5.706024,-0.6420060000000006 9.874023,-1.642006 c2.478973,-0.5939940000000044 5.408997,-1.479996 8.222992,-2.277 c0.1510010000000004,0.059006000000000315 0.296997,0.10700200000000012 0.4479980000000022,0.1670000000000013 c3.256989,1.3050000000000002 6.5,2.805 9.770996,4.221001 c-2.244995,0.9670030000000006 -3.108002,1.401001 -5.608002,2.378006 c-9.761993,3.8170010000000003 -21.049988,7.268997 -30.931,7.268997 c-2.485992,0 -4.792999,-0.1640010000000012 -6.914993,-0.4349980000000018 c-2.123001,-0.270996 -4.076004,-0.660004000000005 -5.848999,-1.139008 c-3.549011,-0.9590000000000006 -6.399002,-2.268997 -8.636002,-3.684998 c-1.119003,-0.7079930000000006 -2.07901,-1.416 -2.891006,-2.143997 c-0.8110050000000006,-0.7269970000000039 -1.477997,-1.462997 -1.994995,-2.143997 c-1.033997,-1.361 -1.479996,-2.572006 -1.479004,-3.216003 c0,-0.9670030000000006 -0.035995,-2.017998 0.20600900000000041,-3.047997 c0.2419890000000013,-1.030006 0.7679900000000058,-2.043007 1.857986,-3.015007 c0.544006,-0.484993 1.255005,-0.9639970000000039 2.167007,-1.406998 c1.8249970000000002,-0.8839950000000069 4.453995,-1.6279980000000007 8.257996,-2.076996 c1.5469970000000002,-0.18199900000000177 3.447006,-0.2980040000000003 5.402008,-0.36800400000000194 zm61.860992,0.301003 c1.597015,0.7900010000000006 3.311005,1.538002 4.817017,2.345001 c0.837982,0.4499970000000003 1.954987,0.8890000000000043 2.855988,1.3399960000000002 c-6.990997,2.763 -13.480988,5.374001 -20.919006,8.107002 c-3.253998,-1.418999 -6.477997,-2.860001 -9.737,-4.187004 c1.016998,-0.2989960000000003 1.902008,-0.4939960000000003 2.925018,-0.8040010000000006 c7.992981,-2.428993 15.223999,-4.950996 20.057983,-6.799995 l0,-0.0009990000000000179 z" id="path4139" stroke-miterlimit="4" stroke-width="1.6" fill="#000000" fill-opacity="1"/>
  </g>
  <rect fill="#000000" stroke-width="5" x="284.2670167684555" y="100.51504135131836" width="112.00000762939453" height="2" id="svg_1" class="selected" fill-opacity="1"/>
  
  <rect fill="#000000" stroke-width="5" x="3.2670167684555054" y="103.51504135131836" width="125" height="2" id="svg_8" class="selected" fill-opacity="1"/>
 </g>
</svg>